<svg xmlns="http://www.w3.org/2000/svg"  viewBox="0 0 16 16" width="16px" height="16px"><path fill="#b7dbba" d="M9.5 15.4L0.5 13.5 0.5 2.5 9.5 0.5z"/><path fill="#fff" d="M9.5 13.5h6v-11h-1-5V13.5zM5.1 8.6C5 8.5 5 8.4 5 8.3l0 0c0 .1-.1.3-.1.4l-1.1 2.2H2.4l1.7-3.2L2.5 5H4l.8 1.5C4.9 6.7 5 6.8 5 7l0 0c.1-.2.1-.3.2-.5L6 5h1.5L5.8 7.6l1.8 3.2H6.1L5.1 8.6z"/><path fill="#e0e9f0" d="M9.5 5H14V6H9.5zM9.5 7H14V8H9.5zM9.5 9H14V10H9.5zM9.5 11H14V12H9.5z"/><path fill="#5d9874" d="M16,2H9.2v1H15v10H9.2v1H16V2z"/><path fill="#5d9874" d="M10 15L9 15 9 13.4 10 14.4z"/><path fill="#5d9874" d="M10 16L0 13.9 0 2.1 10 0 10 12 9 12 9 1.2 1 2.9 1 13.1 9.6 14.9 9.6 15 10 15z"/><path fill="#5d9874" d="M10 14.4L10 12 9 12 9 13.4z"/></svg>